<?xml version="1.0" encoding="UTF-8"?><svg xmlns="http://www.w3.org/2000/svg" width="352.87" height="44.76" viewBox="0 0 352.87 44.76"><g id="Layer_5"><rect x="150.5" y="17.24" width="10.29" height="10.29" style="fill:#0091c4;"/><rect x="150.5" y="4.38" width="10.29" height="10.29" style="fill:#0091c4;"/><rect x="163.36" y="17.24" width="10.29" height="10.29" style="fill:#0091c4;"/><rect x="150.5" y="30.09" width="10.29" height="10.29" style="fill:#0091c4;"/><rect x="137.64" y="17.24" width="10.29" height="10.29" style="fill:#0091c4;"/></g><g id="BOX"><path d="m16.92,43.62H0V1.14h16.92c6.6,0,14.46,2.34,14.46,10.92,0,4.68-2.82,7.8-6.96,9.18v.12c4.86.84,8.7,4.32,8.7,9.9,0,9.24-8.1,12.36-16.2,12.36Zm-1.98-34.32h-5.04v8.76h5.52c3.84,0,6.06-1.62,6.06-4.62s-2.22-4.14-6.54-4.14Zm.66,16.32h-5.7v9.72h5.76c3.24,0,7.2-.9,7.2-5.04,0-3.54-2.88-4.68-7.26-4.68Z" style="fill:#ecf5f9;"/><path d="m61.02,44.76c-13.26,0-23.1-9.12-23.1-22.56S47.76,0,61.02,0s23.16,8.58,23.16,22.2-9.84,22.56-23.16,22.56Zm0-35.52c-7.2,0-12.12,5.52-12.12,12.96s4.98,13.2,12.12,13.2,12.18-5.52,12.18-13.2-4.98-12.96-12.18-12.96Z" style="fill:#ecf5f9;"/><path d="m114.78,43.62l-9.3-15-8.94,15h-12.24l14.88-22.44L85.5,1.14h12.36l7.92,13.2,7.8-13.2h11.94l-13.44,20.04,15.36,22.44h-12.66Z" style="fill:#ecf5f9;"/></g><g id="PIXEL"><path d="m205.4,27.6h-5.1v16.02h-10.26V1.14h15.6c9.3,0,16.62,3.36,16.62,13.08s-7.98,13.38-16.86,13.38Zm-.6-18.18h-4.5v10.02h4.32c3.84,0,7.38-1.14,7.38-5.16s-3.54-4.86-7.2-4.86Z" style="fill:#ecf5f9;"/><path d="m228.44,43.62V1.14h10.32v42.48h-10.32Z" style="fill:#ecf5f9;"/><path d="m273.13,43.62l-9.3-15-8.94,15h-12.24l14.88-22.44-13.68-20.04h12.36l7.92,13.2,7.8-13.2h11.94l-13.44,20.04,15.36,22.44h-12.66Z" style="fill:#ecf5f9;"/><path d="m289.69,43.62V1.14h28.56v8.7h-18.66v7.98h17.64v8.22h-17.64v8.82h19.74v8.76h-29.64Z" style="fill:#ecf5f9;"/><path d="m326.11,43.62V1.14h10.32v33.54h16.44v8.94h-26.76Z" style="fill:#ecf5f9;"/></g></svg>